<?xml version="1.0" encoding="UTF-8" standalone="no"?>
<!-- Created with Inkscape (http://www.inkscape.org/) -->

<svg
   xmlns:dc="http://purl.org/dc/elements/1.1/"
   xmlns:cc="http://creativecommons.org/ns#"
   xmlns:rdf="http://www.w3.org/1999/02/22-rdf-syntax-ns#"
   xmlns:svg="http://www.w3.org/2000/svg"
   xmlns="http://www.w3.org/2000/svg"
   xmlns:sodipodi="http://sodipodi.sourceforge.net/DTD/sodipodi-0.dtd"
   xmlns:inkscape="http://www.inkscape.org/namespaces/inkscape"
   width="29.424219mm"
   height="12.58874mm"
   viewBox="0 0 29.424219 12.588741"
   version="1.1"
   id="svg8"
   inkscape:version="0.92.5 (2060ec1f9f, 2020-04-08)"
   sodipodi:docname="gughi.svg">
  <defs
     id="defs2" />
  <sodipodi:namedview
     id="base"
     pagecolor="#ffffff"
     bordercolor="#666666"
     borderopacity="1.0"
     inkscape:pageopacity="0"
     inkscape:pageshadow="2"
     inkscape:zoom="7.9195959"
     inkscape:cx="142.95647"
     inkscape:cy="-18.639924"
     inkscape:document-units="mm"
     inkscape:current-layer="layer1"
     showgrid="false"
     fit-margin-top="0"
     fit-margin-left="0"
     fit-margin-right="0"
     fit-margin-bottom="0"
     inkscape:window-width="3770"
     inkscape:window-height="2119"
     inkscape:window-x="1510"
     inkscape:window-y="0"
     inkscape:window-maximized="1"
     inkscape:pagecheckerboard="false" />
  <metadata
     id="metadata5">
    <rdf:RDF>
      <cc:Work
         rdf:about="">
        <dc:format>image/svg+xml</dc:format>
        <dc:type
           rdf:resource="http://purl.org/dc/dcmitype/StillImage" />
        <dc:title></dc:title>
      </cc:Work>
    </rdf:RDF>
  </metadata>
  <g
     inkscape:label="Layer 1"
     inkscape:groupmode="layer"
     id="layer1"
     transform="translate(-11.20897,-146.77573)">
    <path
       style="fill:none;fill-rule:evenodd;stroke:none;stroke-width:0.26458332px;stroke-linecap:butt;stroke-linejoin:miter;stroke-opacity:1"
       d="m 25.641524,156.4078 c -0.0036,0.0327 0.02944,0.0379 0.04176,0.0585 0.0045,0.008 0.0044,0.0172 0.0084,0.025 0.0018,0.004 0.0059,0.005 0.0084,0.008 0.0087,0.0109 0.01789,0.0215 0.02506,0.0334 0.0014,0.002 -0.001,0.006 0,0.008 0.0079,0.0198 0.0205,0.0412 0.03341,0.0585 0.0024,0.003 0.0056,0.006 0.0084,0.008 0.0056,0.006 0.01,0.0127 0.0167,0.0167 0.0075,0.005 0.01718,0.004 0.02506,0.008 0.007,0.004 0.0097,0.0132 0.01671,0.0167 0.0025,0.001 0.0059,-10e-4 0.0084,0 0.03476,0.0174 -0.0089,-5.8e-4 0.0084,0.0167 0.002,0.002 0.0056,0 0.0084,0 0.0028,0.003 0.0062,0.005 0.0084,0.008 0.0069,0.0103 0.0098,0.023 0.0167,0.0334 0.0022,0.003 0.0056,0.006 0.0084,0.008 0.0084,0.008 0.0167,0.0167 0.02506,0.0251 0.01949,0.0195 0.03898,0.039 0.05846,0.0585 0.0028,0.003 0.0056,0.006 0.0084,0.008 0.0056,0.006 0.01198,0.0104 0.01671,0.0167 0.0037,0.005 0.0049,0.0115 0.0084,0.0167 0.0022,0.003 0.0056,0.006 0.0084,0.008 0.0056,0.006 0.01114,0.0111 0.0167,0.0167 0.0056,0.006 0.01114,0.0111 0.01671,0.0167 0.0028,0.003 0.0048,0.007 0.0084,0.008 0.0025,10e-4 0.0056,0 0.0084,0 0.0056,0.003 0.01172,0.005 0.01671,0.008 0.0063,0.005 0.01114,0.0111 0.0167,0.0167 0.0028,0.003 0.0048,0.007 0.0084,0.008 0.0025,0.001 0.0057,-8.7e-4 0.0084,0 0.0059,0.002 0.0108,0.006 0.0167,0.008 0.0026,8.7e-4 0.0057,-8.8e-4 0.0084,0 0.0605,0.0202 -0.01317,-0.002 0.02506,0.0167 0.0025,0.001 0.0059,-10e-4 0.0084,0 7.67e-4,4e-4 0.01558,0.0159 0.0167,0.0167 0.0052,0.003 0.0108,0.006 0.01671,0.008 0.02486,0.008 -0.01714,-0.0198 0.02506,0.008 0.0011,7.4e-4 0.01593,0.0163 0.0167,0.0167 0.005,0.002 0.01172,-0.002 0.01671,0 0.0035,0.002 0.0056,0.006 0.0084,0.008 0.0056,0 0.01142,-0.002 0.0167,0 0.0037,0.001 0.0048,0.007 0.0084,0.008 0.005,0.002 0.01172,-0.002 0.0167,0 0.007,0.004 0.0097,0.0132 0.0167,0.0167 0.0025,10e-4 0.0059,-0.001 0.0084,0 0.0035,0.002 0.0048,0.007 0.0084,0.008 0.0025,0.001 0.0057,-6.9e-4 0.0084,0 0.0085,0.002 0.01651,0.006 0.02506,0.008 0.0027,6.9e-4 0.0056,0 0.0084,0 0.0084,0 0.0167,0 0.02506,0 0.0056,0 0.0113,-0.001 0.0167,0 0.006,0.002 0.0108,0.006 0.0167,0.008 0.0026,8.8e-4 0.0056,0 0.0084,0 0.0084,0 0.0167,0 0.02506,0 0.02784,0 0.05568,0 0.08352,0 0.01392,0 0.02784,0 0.04176,0 0.0028,0 0.0056,0 0.0084,0 0.0028,0 0.0059,10e-4 0.0084,0 0.01032,-0.005 0.0084,-0.008 0.0084,-0.0167 0,-0.003 -0.0012,-0.006 0,-0.008 0.0018,-0.004 0.0066,-0.005 0.0084,-0.008 0.0012,-0.002 0,-0.006 0,-0.008 0,-0.008 0,-0.0167 0,-0.0251 0,-0.003 -0.0012,-0.006 0,-0.008 0.0018,-0.004 0.0071,-0.005 0.0084,-0.008 0.0018,-0.005 0,-0.0111 0,-0.0167 0,-0.003 0,-0.006 0,-0.008 0,-0.0195 0,-0.039 0,-0.0585 0,-0.0139 0,-0.0278 0,-0.0418 0,-0.008 0.0014,-0.0168 0,-0.0251 -0.0015,-0.009 -0.0062,-0.0165 -0.0084,-0.0251 -6.88e-4,-0.003 0.0012,-0.006 0,-0.008 -0.009,-0.018 -0.02443,-0.0322 -0.03341,-0.0501 -0.0012,-0.002 0.0012,-0.006 0,-0.008 -0.0018,-0.004 -0.006,-0.005 -0.0084,-0.008 -0.006,-0.008 -0.01068,-0.017 -0.0167,-0.025 -0.0024,-0.003 -0.0056,-0.006 -0.0084,-0.008 -0.0028,-0.003 -0.0056,-0.006 -0.0084,-0.008 -0.0028,-0.003 -0.006,-0.005 -0.0084,-0.008 -0.006,-0.008 -0.01043,-0.0172 -0.0167,-0.0251 -0.0049,-0.006 -0.01114,-0.0111 -0.0167,-0.0167 -0.0028,-0.003 -0.0056,-0.006 -0.0084,-0.008 -0.0084,-0.008 -0.01671,-0.0167 -0.02506,-0.025 -0.0028,-0.003 -0.0053,-0.006 -0.0084,-0.008 -0.01087,-0.009 -0.02254,-0.0164 -0.03341,-0.0251 -0.0031,-0.002 -0.0051,-0.006 -0.0084,-0.008 -0.0052,-0.003 -0.01114,-0.006 -0.0167,-0.008 -0.0056,-0.003 -0.0123,-0.004 -0.01671,-0.008 -0.0044,-0.004 -0.0039,-0.0123 -0.0084,-0.0167 -0.0071,-0.007 -0.01796,-0.01 -0.02506,-0.0167 -0.0044,-0.004 -0.0049,-0.0115 -0.0084,-0.0167 -0.0022,-0.003 -0.0062,-0.005 -0.0084,-0.008 -0.0035,-0.005 -0.004,-0.0123 -0.0084,-0.0167 -0.0044,-0.004 -0.01297,-0.003 -0.0167,-0.008 -0.0053,-0.007 -0.0044,-0.0172 -0.0084,-0.0251 -0.0018,-0.004 -0.0066,-0.005 -0.0084,-0.008 -0.0012,-0.002 0.0012,-0.006 0,-0.008 -0.0018,-0.004 -0.0056,-0.006 -0.0084,-0.008 -0.0028,-0.003 -0.0056,-0.006 -0.0084,-0.008 -0.0028,-0.003 -0.0048,-0.007 -0.0084,-0.008 -0.005,-0.002 -0.01172,0.002 -0.0167,0 -0.0035,-0.002 -0.0048,-0.007 -0.0084,-0.008 -0.0025,-0.001 -0.0056,0 -0.0084,0 -0.01623,0 -0.0064,0.002 -0.02506,-0.0167 -0.0277,-0.0277 0.0079,0.004 -0.01671,-0.008 -0.02547,-0.0127 0.01528,-0.007 -0.02506,-0.0167 -0.0054,-0.001 -0.01114,0 -0.0167,0 -0.0028,0 -0.006,0.002 -0.0084,0 -0.0066,-0.004 -0.01041,-0.012 -0.0167,-0.0167 -0.0098,-0.007 -0.03165,-0.0133 -0.04176,-0.0167 -0.0084,-0.003 -0.01652,-0.006 -0.02506,-0.008 -0.0297,-0.007 0.03341,0.0223 -0.03341,0 -0.08984,-0.0299 0.0062,-0.005 -0.03341,-0.025 -0.0025,-0.001 -0.0056,0 -0.0084,0 -0.0028,0 -0.0056,0 -0.0084,0 -0.0056,0 -0.0113,10e-4 -0.01671,0 -0.006,-0.002 -0.0108,-0.006 -0.0167,-0.008 -0.0026,-8.8e-4 -0.0056,0 -0.0084,0 -0.0056,0 -0.01114,0 -0.01671,0 -0.01392,0 -0.02784,0 -0.04176,0 -0.03619,0 -0.07239,0 -0.108579,0 -0.01114,0 -0.02227,0 -0.03341,0 -0.0028,0 -0.006,-0.002 -0.0084,0 -0.0066,0.004 -0.01015,0.0123 -0.01671,0.0167 -0.0023,0.002 -0.0059,-10e-4 -0.0084,0 -0.0035,0.002 -0.0051,0.006 -0.0084,0.008 -0.0052,0.003 -0.01152,0.005 -0.0167,0.008 -0.0033,0.002 -0.0048,0.007 -0.0084,0.008 -0.0025,0.001 -0.0059,-10e-4 -0.0084,0 -0.0035,0.002 -0.0056,0.006 -0.0084,0.008 -0.0028,0.003 -0.0056,0.006 -0.0084,0.008 -0.0028,0.003 -0.0066,0.005 -0.0084,0.008 -0.0012,0.002 0,0.006 0,0.008 0,0.003 0,0.006 0,0.008 0,0.003 0.0015,0.006 0,0.008 -0.02256,0.0339 -0.0219,-0.004 -0.0084,0.0501 z"
       id="path858"
       inkscape:connector-curvature="0" />
    <path
       style="font-style:normal;font-weight:normal;font-size:12.65365124px;line-height:125%;font-family:Sans;letter-spacing:0px;word-spacing:0px;fill:#000000;fill-opacity:1;stroke:none;stroke-width:2.39124107px;stroke-linecap:butt;stroke-linejoin:miter;stroke-opacity:1"
       d="M 81.171875 -0.72070312 C 80.295087 -0.72070312 79.307002 -0.41828109 78.207031 0.1875 C 77.123002 0.77733948 76.149909 1.5907486 75.289062 2.6269531 C 75.623836 4.013873 75.854889 5.9750501 75.982422 8.5097656 C 76.109955 11.044481 76.181324 13.069532 76.197266 14.583984 C 76.229149 16.098437 76.246094 17.150395 76.246094 17.740234 C 76.246094 20.629972 76.182508 23.187476 76.068359 25.486328 C 75.997912 25.586809 75.918049 25.709542 75.863281 25.773438 C 74.747369 27.686429 73.678466 29.234385 72.658203 30.414062 C 71.63794 31.5778 70.570991 32.485066 69.455078 33.138672 C 68.418874 31.974935 67.819572 31.202911 67.660156 30.820312 C 67.516682 30.437715 67.445314 30.125843 67.445312 29.886719 C 67.445312 29.772048 67.505079 29.615988 67.59375 29.439453 L 65.222656 27.089844 C 64.493685 28.208735 63.735569 28.787109 62.949219 28.787109 C 61.944897 28.787109 61.197315 28.349445 60.703125 27.472656 C 60.224877 26.595868 59.984375 25.487532 59.984375 24.148438 C 59.984375 23.37988 60.086345 22.733422 60.267578 22.183594 L 58.498047 20.429688 C 58.320643 20.588553 58.143389 20.747138 57.976562 20.919922 C 57.083833 21.844535 56.390674 22.903989 55.896484 24.099609 C 55.696243 24.584063 55.54684 25.072812 55.427734 25.5625 C 55.382214 25.637838 55.349905 25.685472 55.298828 25.773438 C 54.756813 26.69805 54.086143 27.60727 53.289062 28.5 C 52.491983 29.39273 51.823265 29.839844 51.28125 29.839844 C 50.659527 29.839844 50.187973 29.218055 49.869141 27.974609 C 49.56625 26.731164 49.462944 25.312911 49.558594 23.71875 C 49.670185 22.124589 49.861806 20.672446 50.132812 19.365234 C 50.180637 19.030461 50.037899 18.759975 49.703125 18.552734 C 49.368351 18.329552 48.906246 18.21875 48.316406 18.21875 C 47.184552 18.21875 45.955966 18.585045 44.632812 19.318359 C 44.027032 23.016812 43.373306 25.671148 42.671875 27.28125 C 41.986386 28.891352 41.204913 29.695312 40.328125 29.695312 C 40.073059 29.695312 39.851456 29.488701 39.660156 29.074219 C 39.468857 28.659737 39.373047 28.101821 39.373047 27.400391 C 39.373047 26.093179 39.515785 24.642989 39.802734 23.048828 C 40.089683 21.454667 40.232422 20.481575 40.232422 20.130859 C 40.232422 19.493195 40.018314 19.006649 39.587891 18.671875 C 39.157467 18.337101 38.592056 18.169922 37.890625 18.169922 C 37.157311 18.169922 36.343902 18.344598 35.451172 18.695312 C 34.558442 19.030086 33.745033 19.494145 33.011719 20.083984 C 33.203018 20.4347 33.298828 21.589963 33.298828 23.550781 C 33.298828 25.495657 33.355206 27.129972 33.466797 28.453125 C 33.578388 29.776278 33.831929 30.899605 34.230469 31.824219 C 34.644951 32.73289 35.138993 33.37912 35.712891 33.761719 C 36.30273 34.144317 36.965905 34.335938 37.699219 34.335938 C 40.39335 34.335938 42.640005 31.480532 44.441406 25.773438 C 44.250107 28.499451 44.402295 30.588377 44.896484 32.039062 C 45.406616 33.473807 46.163647 34.191406 47.167969 34.191406 C 48.873721 34.191406 50.564412 33.458814 52.238281 31.992188 C 53.306086 31.05534 54.288095 29.855169 55.203125 28.447266 C 55.307939 29.479394 55.633871 30.324599 56.207031 30.962891 C 56.908462 31.744029 57.86461 32.134766 59.076172 32.134766 C 60.160201 32.134766 61.197167 31.911209 62.185547 31.464844 C 63.173927 31.018479 64.017319 30.460563 64.71875 29.791016 L 64.265625 31.154297 C 64.026501 31.903552 63.834881 32.613656 63.691406 33.283203 C 63.563873 33.936809 63.556377 34.494725 63.667969 34.957031 L 60.271484 35.386719 C 57.146929 35.737434 54.915267 36.327286 53.576172 37.15625 C 52.237077 38.001155 51.568359 39.133931 51.568359 40.552734 C 51.568359 41.668647 52.01352 42.688668 52.90625 43.613281 C 53.814922 44.553836 55.107381 45.335309 56.78125 45.957031 C 58.455119 46.594696 60.384359 46.912109 62.568359 46.912109 C 62.668744 46.912109 62.765702 46.902635 62.865234 46.900391 L 61.410156 44.488281 C 61.014278 44.368739 60.63169 44.233002 60.271484 44.066406 C 59.012097 43.476567 58.05595 42.792858 57.402344 42.011719 C 56.764679 41.23058 56.445312 40.439659 56.445312 39.642578 C 56.445313 38.797673 56.779671 38.177837 57.449219 37.779297 C 58.134708 37.396698 59.188619 37.12426 60.607422 36.964844 C 62.265349 36.773544 63.47699 36.598869 64.242188 36.439453 C 64.353778 36.614811 64.855317 37.315465 65.748047 38.542969 C 66.656719 39.786414 67.111328 41.061929 67.111328 42.369141 C 67.111328 42.746156 67.075737 43.062038 67.023438 43.347656 L 68.298828 45.460938 C 68.8023 45.1808 69.269238 44.86987 69.693359 44.521484 C 70.602031 43.78817 71.302685 42.952274 71.796875 42.011719 C 72.307006 41.087105 72.5625 40.153445 72.5625 39.212891 C 72.5625 37.570905 71.829909 35.897158 70.363281 34.191406 C 72.367578 32.904697 74.206937 30.917444 75.884766 28.248047 C 75.76231 29.785629 75.618552 31.217946 75.431641 32.421875 C 75.479465 33.729087 76.054326 34.382812 77.154297 34.382812 C 77.600662 34.382812 78.237443 34.272011 79.066406 34.048828 C 80.676509 30.079368 81.745411 27.599708 82.271484 26.611328 C 82.813499 25.607007 83.339478 24.746669 83.849609 24.029297 C 84.375682 23.295983 84.965535 22.696682 85.619141 22.234375 C 85.778557 22.840156 85.945736 24.435038 86.121094 27.017578 C 86.312393 29.584177 86.710625 31.425103 87.316406 32.541016 C 87.922187 33.640987 88.823911 34.191406 90.019531 34.191406 C 91.613692 34.191406 93.238557 33.426879 94.896484 31.896484 C 96.106168 30.778967 97.204056 29.39349 98.197266 27.759766 C 98.400941 29.953216 98.645295 31.433944 98.9375 32.111328 C 99.288215 32.92435 99.68645 33.47477 100.13281 33.761719 C 100.57918 34.048668 101.08268 34.191406 101.64062 34.191406 C 103.29855 34.191406 105.0831 33.402438 106.99609 31.824219 C 108.92503 30.246 110.50296 28.228444 111.73047 25.773438 L 111.875 25.248047 C 111.875 25.040806 111.81113 24.905563 111.68359 24.841797 C 111.55606 24.762089 111.44526 24.722656 111.34961 24.722656 C 111.11049 24.722656 110.92636 24.801521 110.79883 24.960938 C 110.68724 25.104411 110.52005 25.374897 110.29688 25.773438 C 109.80269 26.618342 109.06814 27.527562 108.0957 28.5 C 107.13921 29.456496 106.27887 29.935547 105.51367 29.935547 C 105.14701 29.935547 104.81266 29.726982 104.50977 29.3125 C 104.22282 28.898018 104.08008 28.276229 104.08008 27.447266 C 104.08008 27.335674 104.1345 26.15597 104.24609 23.908203 C 104.37363 21.660436 104.4375 20.418811 104.4375 20.179688 C 104.45344 19.940563 104.46094 19.78088 104.46094 19.701172 C 104.46094 19.127274 104.27127 18.687656 103.88867 18.384766 C 103.50607 18.081875 102.99509 17.931641 102.35742 17.931641 C 101.59222 17.931641 100.71494 18.130757 99.726562 18.529297 C 98.754125 18.911895 97.86185 19.430378 97.048828 20.083984 C 97.464143 21.172395 97.777668 23.021434 98 25.550781 C 97.951661 25.634716 97.912368 25.675997 97.861328 25.773438 C 97.255547 26.857466 96.58683 27.751694 95.853516 28.453125 C 95.136143 29.154556 94.561283 29.503906 94.130859 29.503906 C 93.812027 29.503906 93.509605 29.4006 93.222656 29.193359 C 92.935707 28.970177 92.680214 28.564449 92.457031 27.974609 C 92.233849 27.368828 91.980308 25.894198 91.693359 23.550781 C 91.40641 21.191423 90.998729 19.628478 90.472656 18.863281 C 89.962525 18.082142 89.301303 17.691406 88.488281 17.691406 C 87.531785 17.691406 86.320144 18.544248 84.853516 20.25 C 83.402829 21.955752 81.920703 24.275729 80.40625 27.208984 C 80.454075 26.874211 80.827866 24.060192 81.529297 18.767578 C 82.246669 13.474964 82.72572 9.5620593 82.964844 7.0273438 C 83.219909 4.4926281 83.355152 2.5953245 83.371094 1.3359375 C 83.371094 0.66638998 83.164482 0.15540287 82.75 -0.1953125 C 82.35146 -0.54602787 81.825481 -0.72070312 81.171875 -0.72070312 z M 21.628906 1.8144531 C 18.600001 1.8144531 15.755999 2.4043054 13.09375 3.5839844 C 10.431501 4.7636634 8.1434616 6.3021674 6.2304688 8.1992188 C 4.3334174 10.09627 2.9057151 12.215177 1.9492188 14.558594 C 1.0086639 16.90201 0.5390625 19.28586 0.5390625 21.708984 C 0.5390625 24.83354 1.1119699 27.50482 2.2597656 29.720703 C 3.4075614 31.920645 4.9066329 33.530518 6.7558594 34.550781 C 8.6050859 35.586986 10.549318 36.103516 12.589844 36.103516 C 15.060793 36.103516 17.262472 35.555049 19.191406 34.455078 C 21.136282 33.355107 22.633401 31.912413 23.685547 30.126953 C 23.844963 32.422545 23.925781 35.546481 23.925781 39.5 C 23.925781 40.042015 24.076016 40.447743 24.378906 40.71875 C 24.697738 40.989757 25.120411 41.126953 25.646484 41.126953 C 26.555156 41.126953 27.511304 40.790641 28.515625 40.121094 C 28.770691 39.626904 29.082562 36.893704 29.449219 31.919922 C 29.815876 26.930199 29.998047 23.526328 29.998047 21.708984 C 29.998047 20.593072 29.489013 20.035156 28.46875 20.035156 C 27.097772 20.035156 25.104658 20.927431 22.490234 22.712891 C 22.856891 23.828803 22.967693 24.922147 22.824219 25.990234 C 22.696686 27.058322 22.33039 28.006974 21.724609 28.835938 C 21.118828 29.6649 20.322364 30.318627 19.333984 30.796875 C 18.345605 31.275123 17.244765 31.513672 16.033203 31.513672 C 14.757874 31.513672 13.538737 31.11544 12.375 30.318359 C 11.211263 29.505337 10.215682 28.468371 9.3867188 27.208984 C 8.5736967 25.949597 7.9838445 24.553831 7.6171875 23.023438 C 7.2664721 21.493043 7.0898438 19.956492 7.0898438 18.410156 C 7.0898438 15.189951 7.689145 12.50368 8.8847656 10.351562 C 10.080386 8.1835043 11.577505 6.620559 13.378906 5.6640625 C 15.19625 4.6916244 17.022184 4.2050781 18.855469 4.2050781 C 20.609046 4.2050781 21.892056 4.7704896 22.705078 5.9023438 C 23.5181 7.0182562 24.036583 8.7333886 24.259766 11.044922 C 26.108992 11.204338 27.591119 10.892467 28.707031 10.111328 C 29.822944 9.3142478 30.380859 8.2228574 30.380859 6.8359375 C 30.380859 5.353368 29.584395 4.1492226 27.990234 3.2246094 C 26.396074 2.2840545 24.275213 1.8144531 21.628906 1.8144531 z M 102.69141 4.4453125 C 101.8465 4.4453125 100.92229 4.6594203 99.917969 5.0898438 C 98.913647 5.5043255 98.117183 6.1016737 97.527344 6.8828125 C 97.527344 8.205966 97.72646 9.427056 98.125 10.542969 C 98.52354 11.658881 98.985646 12.462841 99.511719 12.957031 C 100.05373 13.435279 100.63609 13.673828 101.25781 13.673828 C 101.99113 13.673828 102.64485 13.356414 103.21875 12.71875 C 103.80859 12.065144 104.23126 11.227294 104.48633 10.207031 C 104.75734 9.170827 104.89258 8.2221749 104.89258 7.3613281 C 104.89258 6.0381747 104.67652 5.2247655 104.24609 4.921875 C 103.81567 4.6030428 103.29719 4.4453125 102.69141 4.4453125 z M 71.988281 12.669922 C 70.712953 12.669922 69.550193 13.117036 68.498047 14.009766 C 70.347273 15.572043 70.57083 17.324655 69.167969 19.269531 C 68.115823 18.376801 66.680625 17.931641 64.863281 17.931641 C 63.556069 17.931641 62.304996 18.202126 61.109375 18.744141 C 61.067135 18.762726 61.02819 18.785604 60.986328 18.804688 L 62.474609 20.28125 C 62.490182 20.280949 62.50384 20.275391 62.519531 20.275391 C 63.619502 20.275391 64.376534 20.752488 64.791016 21.708984 C 64.955613 22.074756 65.079987 22.501917 65.181641 22.960938 L 69.351562 27.09375 C 69.601653 26.743471 69.804266 26.422263 69.957031 26.132812 C 70.259922 25.542974 70.466534 24.977562 70.578125 24.435547 C 70.689716 23.877591 70.746094 23.366604 70.746094 22.904297 C 70.746094 21.756501 70.426727 20.768417 69.789062 19.939453 C 71.144099 19.206139 72.213002 18.338306 72.994141 17.333984 C 73.791221 16.313721 74.189453 15.380061 74.189453 14.535156 C 74.189453 13.9772 74.005329 13.532039 73.638672 13.197266 C 73.272015 12.84655 72.721595 12.669922 71.988281 12.669922 z "
       transform="matrix(0.26458333,0,0,0.26458333,11.20897,146.77573)"
       id="text966" />
    <text
       xml:space="preserve"
       style="font-style:normal;font-weight:normal;font-size:5.29166651px;line-height:125%;font-family:Sans;letter-spacing:0px;word-spacing:0px;fill:#000000;fill-opacity:1;stroke:none;stroke-width:0.26458332px;stroke-linecap:butt;stroke-linejoin:miter;stroke-opacity:1"
       x="-5.7626438"
       y="142.49309"
       id="text927"><tspan
         sodipodi:role="line"
         id="tspan925"
         x="-5.7626438"
         y="147.25958"
         style="stroke-width:0.26458332px"></tspan></text>
  </g>
</svg>
