<?xml version="1.0" encoding="UTF-8" standalone="no"?>
<!-- Created with Inkscape (http://www.inkscape.org/) -->

<svg
   xmlns:dc="http://purl.org/dc/elements/1.1/"
   xmlns:cc="http://creativecommons.org/ns#"
   xmlns:rdf="http://www.w3.org/1999/02/22-rdf-syntax-ns#"
   xmlns:svg="http://www.w3.org/2000/svg"
   xmlns="http://www.w3.org/2000/svg"
   xmlns:sodipodi="http://sodipodi.sourceforge.net/DTD/sodipodi-0.dtd"
   xmlns:inkscape="http://www.inkscape.org/namespaces/inkscape"
   width="35mm"
   height="12.570275mm"
   viewBox="0 0 35 12.570276"
   version="1.1"
   id="svg8"
   inkscape:version="0.92.5 (2060ec1f9f, 2020-04-08)"
   sodipodi:docname="inner.svg">
  <defs
     id="defs2" />
  <sodipodi:namedview
     id="base"
     pagecolor="#ffffff"
     bordercolor="#666666"
     borderopacity="1.0"
     inkscape:pageopacity="0.0"
     inkscape:pageshadow="2"
     inkscape:zoom="7.9195959"
     inkscape:cx="71.985257"
     inkscape:cy="63.143707"
     inkscape:document-units="mm"
     inkscape:current-layer="layer1"
     showgrid="false"
     fit-margin-top="0"
     fit-margin-left="0"
     fit-margin-right="0"
     fit-margin-bottom="0"
     inkscape:window-width="3770"
     inkscape:window-height="2119"
     inkscape:window-x="1510"
     inkscape:window-y="0"
     inkscape:window-maximized="1" />
  <metadata
     id="metadata5">
    <rdf:RDF>
      <cc:Work
         rdf:about="">
        <dc:format>image/svg+xml</dc:format>
        <dc:type
           rdf:resource="http://purl.org/dc/dcmitype/StillImage" />
        <dc:title></dc:title>
      </cc:Work>
    </rdf:RDF>
  </metadata>
  <g
     inkscape:label="Layer 1"
     inkscape:groupmode="layer"
     id="layer1"
     transform="translate(-11.233453,-146.7844)">
    <g
       aria-label="Spritzy"
       style="font-style:normal;font-weight:normal;font-size:15.18607712px;line-height:125%;font-family:Sans;letter-spacing:0px;word-spacing:0px;fill:#06ffff;fill-opacity:1;stroke:none;stroke-width:0.2;stroke-linecap:butt;stroke-linejoin:miter;stroke-miterlimit:4;stroke-dasharray:none;stroke-opacity:1"
       id="text817-4"
       transform="matrix(0.87499993,0,0,0.87499993,1.4041824,19.919345)">
      <path
         d="m 11.233453,148.25366 q 0,-0.78209 0.379652,-1.5262 0.379652,-0.74412 1.336374,-1.23767 0.964316,-0.50114 2.536075,-0.50114 0.77449,0 1.495829,0.25057 0.721339,0.25057 1.108584,0.64541 0.387244,0.39484 0.387244,0.71375 0,1.04024 -1.533793,1.42749 -0.151861,-1.14655 -0.736525,-1.73881 -0.577071,-0.59985 -1.29841,-0.59985 -0.432803,0 -0.865606,0.15945 -0.432803,0.15187 -0.713746,0.53152 -0.273349,0.37206 -0.273349,0.79727 0,0.33409 0.136675,0.7593 0.144267,0.42521 0.561884,0.95672 0.425211,0.52392 1.381934,1.34397 0.956722,0.82005 1.290816,1.16174 0.334094,0.33409 0.546699,0.63022 0.220198,0.28853 0.379652,0.66059 0.167047,0.36447 0.167047,0.78968 0,1.19211 -0.895979,1.93622 -0.888385,0.75171 -2.277912,0.75171 -0.835234,0 -1.503421,-0.31131 -0.668188,-0.30372 -1.12377,-1.07062 0.205012,-0.31131 0.59985,-0.55429 0.394838,-0.25057 0.706153,-0.25057 0.303721,0 0.410024,0.25816 0.485954,1.18452 1.457863,1.18452 0.546699,0 0.835235,-0.25057 0.288535,-0.25057 0.288535,-0.67578 0,-0.25057 -0.242977,-0.57708 -0.242977,-0.3265 -1.184514,-1.00987 -0.941537,-0.69097 -1.351561,-1.03265 -0.402431,-0.34169 -0.713746,-0.6606 -0.303721,-0.3265 -0.59985,-0.75171 -0.296128,-0.42521 -0.493547,-0.99469 -0.197419,-0.57707 -0.197419,-1.21488 z"
         style="font-style:normal;font-variant:normal;font-weight:normal;font-stretch:normal;font-family:EggoOTW03-Black;-inkscape-font-specification:EggoOTW03-Black;fill:#06ffff;fill-opacity:1;stroke:none;stroke-width:0.2;stroke-miterlimit:4;stroke-dasharray:none;stroke-opacity:1"
         id="path899"
         inkscape:connector-curvature="0" />
      <path
         d="m 20.390645,158.83835 c -0.111364,0.11643 -0.270818,0.21514 -0.478361,0.29613 -0.207543,0.0861 -0.402431,0.12908 -0.584664,0.12908 -0.303721,0 -0.455582,-0.11643 -0.455582,-0.34928 -0.02531,-4.18123 -0.151857,-6.87929 -0.379652,-8.09418 0.242977,-0.19235 0.526451,-0.35434 0.85042,-0.48595 0.329032,-0.13161 0.617568,-0.19742 0.865607,-0.19742 0.187295,0 0.336624,0.043 0.447989,0.12908 0.116427,0.0861 0.17464,0.21514 0.17464,0.38725 0,0.32903 -0.01519,0.7593 -0.04556,1.29081 0.167047,-0.32397 0.366998,-0.62009 0.599851,-0.88838 0.237915,-0.26829 0.52645,-0.49861 0.865606,-0.69097 0.339155,-0.19235 0.696028,-0.28853 1.070618,-0.28853 0.430273,0 0.764366,0.14174 1.002281,0.42521 0.242977,0.28347 0.364466,0.66312 0.364466,1.13895 0,0.45052 -0.136675,0.89092 -0.410024,1.32119 -0.273349,0.42521 -0.627691,0.79474 -1.063025,1.10859 0.151861,0.0303 0.303721,0.0455 0.455582,0.0455 0.850421,0 1.594538,-0.49608 2.232353,-1.48823 0.0051,-0.0101 0.0405,-0.0683 0.106303,-0.17464 0.07087,-0.10631 0.146799,-0.15946 0.227791,-0.15946 0.04556,0 0.08353,0.0177 0.113896,0.0532 0.03543,0.0355 0.05315,0.0684 0.05315,0.0987 0,0.0405 -0.02025,0.10121 -0.06074,0.18223 -0.258163,0.5062 -0.59985,0.94913 -1.025061,1.32878 -0.42521,0.37459 -0.903571,0.67831 -1.435084,0.91116 -0.526451,0.22779 -0.985505,0.25578 -1.491708,0.25578 -0.521492,0.0513 -0.548896,-0.29591 -0.557129,-0.84088 0.04918,-0.58068 0.09222,-0.83982 0.560602,-0.53111 0.232853,-0.41509 0.349279,-0.9466 0.349279,-1.59454 0,-0.57707 -0.136675,-0.86561 -0.410024,-0.86561 -0.167047,0 -0.356873,0.0759 -0.569478,0.22779 -0.207543,0.1468 -0.415086,0.3999 -0.622629,0.75931 -0.202481,0.35434 -0.356872,0.72893 -0.463175,1.12377 -0.141737,2.13111 -0.22526,3.47002 -0.25057,4.01672 -0.02531,0.55176 -0.03797,1.02506 -0.03797,1.41989 z"
         style="font-style:normal;font-variant:normal;font-weight:normal;font-stretch:normal;font-family:EggoOTW03-Black;-inkscape-font-specification:EggoOTW03-Black;fill:#06ffff;fill-opacity:1;stroke:none;stroke-width:0.2;stroke-miterlimit:4;stroke-dasharray:none;stroke-opacity:1"
         id="path901"
         inkscape:connector-curvature="0"
         sodipodi:nodetypes="ccscccscscccscsccsccscsccccccsscccccc" />
      <path
         d="m 27.3003,155.25444 q -0.394838,0.1063 -0.607443,0.1063 -0.554292,0 -0.561885,-0.62263 -0.03796,-2.04252 -0.501141,-3.91801 0.364466,-0.28853 0.827641,-0.47836 0.463176,-0.18982 0.812456,-0.18982 0.577071,0 0.577071,0.51632 0,1.24526 -0.06075,2.32347 0.668188,-1.78436 1.116177,-2.54366 0.447989,-0.7669 0.873199,-0.7669 0.06834,0 0.136675,0.0456 0.07593,0.0456 0.129082,0.16704 0.05315,0.12149 0.136674,0.6606 0.09112,0.5391 0.341687,0.5391 0.265756,0 0.69856,-0.27335 0.09871,-0.0607 0.220198,-0.0304 0.129081,0.0304 0.129081,0.16705 0,0.0987 -0.121488,0.24298 -0.554292,0.64541 -0.994688,0.93394 -0.432803,0.28094 -0.964316,0.28094 -0.493548,0 -0.728932,-0.45558 -0.235384,0.39484 -0.713745,1.55657 -0.478362,1.16174 -0.744118,1.73881 z"
         style="font-style:normal;font-variant:normal;font-weight:normal;font-stretch:normal;font-family:EggoOTW03-Black;-inkscape-font-specification:EggoOTW03-Black;fill:#06ffff;fill-opacity:1;stroke:none;stroke-width:0.2;stroke-miterlimit:4;stroke-dasharray:none;stroke-opacity:1"
         id="path903"
         inkscape:connector-curvature="0" />
      <path
         d="m 31.370142,146.62875 q 0.280942,-0.37206 0.759303,-0.56948 0.478362,-0.20501 0.880793,-0.20501 0.288535,0 0.493547,0.15186 0.205012,0.14427 0.205012,0.77449 0,0.41002 -0.129081,0.90357 -0.121489,0.48595 -0.402431,0.79727 -0.27335,0.30372 -0.622629,0.30372 -0.296129,0 -0.554292,-0.22779 -0.250571,-0.23538 -0.440397,-0.7669 -0.189825,-0.53151 -0.189825,-1.16173 z m -0.151861,4.19135 q 0.387245,-0.31131 0.85042,-0.49354 0.470768,-0.18983 0.835234,-0.18983 0.303722,0 0.485955,0.14427 0.182233,0.14427 0.182233,0.41762 0,0.038 -0.0076,0.15186 0,0.11389 -0.06074,1.18451 -0.05315,1.07062 -0.05315,1.12377 0,0.39484 0.136675,0.59226 0.144268,0.19742 0.318907,0.19742 0.364466,0 0.820049,-0.45559 0.463175,-0.46317 0.698559,-0.8656 0.106303,-0.18983 0.159454,-0.25817 0.06074,-0.0759 0.17464,-0.0759 0.04556,0 0.106302,0.038 0.06074,0.0304 0.06074,0.12908 l -0.04556,0.16705 q -0.584664,1.16933 -1.503421,1.92104 Q 33.46582,155.3 32.676144,155.3 q -0.265756,0 -0.478361,-0.13668 -0.212605,-0.13667 -0.379652,-0.52392 -0.167047,-0.38724 -0.27335,-1.81473 -0.106302,-1.42749 -0.3265,-2.00457 z"
         style="font-style:normal;font-variant:normal;font-weight:normal;font-stretch:normal;font-family:EggoOTW03-Black;-inkscape-font-specification:EggoOTW03-Black;fill:#06ffff;fill-opacity:1;stroke:none;stroke-width:0.2;stroke-miterlimit:4;stroke-dasharray:none;stroke-opacity:1"
         id="path905"
         inkscape:connector-curvature="0" />
      <path
         d="m 40.542509,152.62725 q -0.637815,1.29841 -1.571759,2.01215 -0.92635,0.70616 -1.769178,0.70616 -0.888385,0 -1.298409,-0.73653 -0.410024,-0.73652 -0.432803,-2.22476 l -0.01519,-1.16933 -0.653002,-0.0607 q -0.212605,-0.21261 -0.212605,-0.41003 0,-0.27334 0.455582,-0.27334 h 0.410025 q -0.03037,-1.5338 -0.27335,-2.59682 0.334094,-0.41003 0.994688,-0.74412 0.668188,-0.3341 1.085805,-0.3341 0.334093,0 0.334093,0.24298 0,0.39484 -0.06074,0.96432 -0.05315,0.56948 -0.159454,1.36674 -0.09871,0.79727 -0.129081,1.05544 0.288535,-0.0228 0.607443,-0.0987 0.3265,-0.0759 0.941537,-0.3265 0.318907,0.27335 0.318907,0.60744 0,0.37965 -0.410024,0.5467 -0.402431,0.15945 -1.533794,0.13667 -0.04556,0.5467 -0.04556,1.01747 0,0.99469 0.227791,1.50342 0.227791,0.50114 0.789676,0.50114 0.463176,0 0.964316,-0.41002 0.501141,-0.41003 0.979502,-1.27563 0.09112,-0.17464 0.151861,-0.25057 0.06834,-0.0835 0.182233,-0.0835 0.07593,0 0.121488,0.0532 0.04556,0.0456 0.04556,0.0987 0,0.0911 -0.04556,0.18223 z"
         style="font-style:normal;font-variant:normal;font-weight:normal;font-stretch:normal;font-family:EggoOTW03-Black;-inkscape-font-specification:EggoOTW03-Black;fill:#06ffff;fill-opacity:1;stroke:none;stroke-width:0.2;stroke-miterlimit:4;stroke-dasharray:none;stroke-opacity:1"
         id="path907"
         inkscape:connector-curvature="0" />
      <path
         d="m 43.488601,155.33037 c -0.131613,0 -0.301191,-0.0202 -0.508734,-0.0607 -0.202481,-0.0405 -0.589726,-0.18227 -1.161735,-0.42521 -1.644362,0.42269 -0.792663,-1.56096 0.364466,-1.42754 0.445458,-0.55682 0.840296,-1.17945 1.184514,-1.86788 -0.475831,0.20248 -0.863076,0.33915 -1.161735,0.41002 -0.298659,0.0709 -0.589726,0.1063 -0.873199,0.1063 -0.146799,0 -0.288535,-0.0152 -0.42521,-0.0456 -0.172109,0.24298 -0.303722,0.46065 -0.394838,0.65301 -0.07087,0.13161 -0.151861,0.19742 -0.242978,0.19742 -0.03543,0 -0.0734,-0.0177 -0.113895,-0.0532 -0.03543,-0.0354 -0.05315,-0.0734 -0.05315,-0.11389 0,-0.0405 0.02025,-0.10128 0.06074,-0.18223 0.126551,-0.23792 0.232853,-0.47077 0.318907,-0.69856 -0.394838,-0.26323 -0.592257,-0.74412 -0.592257,-1.44268 0,-0.30879 0.09365,-0.57707 0.280943,-0.80486 0.192357,-0.23285 0.407493,-0.34928 0.645408,-0.34928 0.293597,0 0.511264,0.10124 0.653001,0.30372 0.146799,0.20248 0.202481,0.48089 0.167047,0.83523 0.329032,0.0506 0.718808,0.0759 1.169328,0.0759 0.642877,0 1.138956,-0.0658 1.488236,-0.19742 0.121489,0.0759 0.202481,0.20249 0.242977,0.37966 0.04049,0.17211 0.0051,0.33915 -0.106303,0.50114 -0.156923,0.18729 -0.339155,0.42268 -0.546698,0.70615 -0.202481,0.27841 -0.566947,0.8327 -1.093398,1.66287 0.445458,0.0405 0.860544,0.0607 1.245258,0.0607 0.389776,0 0.728932,-0.0607 1.017468,-0.18223 0.293597,-0.12655 0.556823,-0.37459 0.789676,-0.74412 0.01519,-0.0253 0.05062,-0.0861 0.106302,-0.18223 0.06075,-0.10125 0.136677,-0.15187 0.227791,-0.15187 0.05062,0 0.09112,0.0177 0.121489,0.0532 0.03037,0.0304 0.04556,0.0633 0.04556,0.0987 0,0.0455 -0.01519,0.10628 -0.04556,0.18223 -0.384714,0.84029 -0.827641,1.50089 -1.328782,1.98178 -0.501141,0.48089 -0.994688,0.72134 -1.480642,0.72134 z"
         style="font-style:normal;font-variant:normal;font-weight:normal;font-stretch:normal;font-family:EggoOTW03-Black;-inkscape-font-specification:EggoOTW03-Black;fill:#06ffff;fill-opacity:1;stroke:none;stroke-width:0.2;stroke-miterlimit:4;stroke-dasharray:none;stroke-opacity:1"
         id="path909"
         inkscape:connector-curvature="0"
         sodipodi:nodetypes="cccccssccscsccscsccscccccscccscscscc" />
      <path
         d="m 51.233453,152.79429 q 0,1.28323 -0.280942,2.407 -0.280943,1.12377 -0.911165,2.0729 -0.630222,0.94913 -1.602131,1.51101 -0.971909,0.56948 -1.959004,0.56948 -0.660594,0 -1.268037,-0.15186 -0.607443,-0.15186 -0.933944,-0.48596 -0.334094,-0.33409 -0.334094,-0.7593 0,-0.37965 0.326501,-0.69097 0.318908,-0.30372 0.858013,-0.28094 0.546699,0.74412 1.040247,1.12377 0.50114,0.37965 1.176921,0.37965 1.131362,0 1.746398,-1.22248 0.62263,-1.22247 0.62263,-3.63706 l -0.03037,-0.50114 q -0.402431,0.8732 -1.009874,1.51861 -0.607443,0.63781 -1.192107,0.63781 -0.159454,0 -0.356873,-0.18223 -0.197419,-0.18983 -0.470768,-0.7669 -0.273349,-0.58466 -0.653001,-1.86029 -0.379652,-1.28323 -0.478362,-1.47305 0.402431,-0.34169 0.835235,-0.56189 0.440396,-0.22779 0.77449,-0.22779 0.57707,0 0.668187,0.66819 0.341687,2.40699 0.668187,3.02203 0.341687,-0.25816 0.546699,-0.69856 0.212605,-0.4404 0.212605,-1.00228 0,-0.74412 -0.379652,-1.6401 0.501141,-0.34928 1.214886,-0.34928 0.660595,0 0.911165,0.63022 0.258163,0.63023 0.258163,1.95141 z"
         style="font-style:normal;font-variant:normal;font-weight:normal;font-stretch:normal;font-family:EggoOTW03-Black;-inkscape-font-specification:EggoOTW03-Black;fill:#06ffff;fill-opacity:1;stroke:none;stroke-width:0.2;stroke-miterlimit:4;stroke-dasharray:none;stroke-opacity:1"
         id="path911"
         inkscape:connector-curvature="0" />
    </g>
  </g>
</svg>
